<mxfile host="app.diagrams.net" modified="2021-10-16T11:03:07.142Z" agent="5.0 (Windows NT 10.0; Win64; x64) AppleWebKit/537.36 (KHTML, like Gecko) Chrome/94.0.4606.71 Safari/537.36 Edg/94.0.992.38" etag="kMoThtM8gkp81DyZINF7" version="15.5.4" type="github">
  <diagram id="INQKOqRht34q2Yc0ttDQ" name="Page-1">
    <mxGraphModel dx="1038" dy="579" grid="1" gridSize="10" guides="1" tooltips="1" connect="1" arrows="1" fold="1" page="1" pageScale="1" pageWidth="850" pageHeight="1100" math="0" shadow="0">
      <root>
        <mxCell id="0" />
        <mxCell id="1" parent="0" />
        <mxCell id="-fO61QpQsFOEa48RO7kH-1" value="" style="shape=ellipse;html=1;dashed=0;whitespace=wrap;aspect=fixed;perimeter=ellipsePerimeter;" vertex="1" parent="1">
          <mxGeometry x="230" y="170" width="70" height="70" as="geometry" />
        </mxCell>
        <mxCell id="-fO61QpQsFOEa48RO7kH-2" value="" style="html=1;dashed=0;whitespace=wrap;" vertex="1" parent="1">
          <mxGeometry x="60" y="180" width="100" height="50" as="geometry" />
        </mxCell>
        <mxCell id="-fO61QpQsFOEa48RO7kH-3" value="" style="html=1;dashed=0;whitespace=wrap;" vertex="1" parent="1">
          <mxGeometry x="360" y="180" width="100" height="50" as="geometry" />
        </mxCell>
      </root>
    </mxGraphModel>
  </diagram>
</mxfile>
